<?xml version="1.0" encoding="utf-8"?>
<!DOCTYPE svg PUBLIC "-//W3C//DTD SVG 1.1//EN" "http://www.w3.org/Graphics/SVG/1.1/DTD/svg11.dtd">
<svg style="width:308px;height:308px;" version="1.1" id="图形" xmlns="http://www.w3.org/2000/svg" xmlns:xlink="http://www.w3.org/1999/xlink" x="0px" y="0px" width="1024px" height="1024px" viewBox="0 0 1024 1024" enable-background="new 0 0 1024 1024" xml:space="preserve">
  <path class="svgpath" data-index="path_0" fill="#9d55b8" d="M527.524067 835.694263c0 0-370.699834-200.711278-370.699834-473.873658 0-104.639199 104.195084-189.496865 207.316719-189.496865 78.284971 0 138.522913 48.967248 163.019841 118.321826 0.076748 0.033769 0.349971 0.11154 0.349971 0.11154s0.26913-0.078795 0.350994-0.11154c24.508183-69.354578 84.732823-118.321826 163.02598-118.321826 103.110379 0 207.30137 84.857667 207.30137 189.496865C898.202411 634.968659 527.524067 835.694263 527.524067 835.694263L527.524067 835.694263zM529.278014 894.003274c0 0-445.257923-241.101173-445.257923-569.187467 0-125.703957 125.158535-227.644697 249.021563-227.644697 94.04184 0 166.381401 58.83499 195.821921 142.129045 0.081864 0.049119 0.414439 0.147356 0.414439 0.147356s0.333598-0.098237 0.431835-0.147356c29.457916-83.307358 101.752452-142.129045 195.822944-142.129045 123.862006 0 249.00519 101.94074 249.00519 227.644697C974.539007 652.915403 529.278014 894.003274 529.278014 894.003274L529.278014 894.003274z" />

</svg>
