<?xml version="1.0" encoding="utf-8"?>
<!DOCTYPE svg PUBLIC "-//W3C//DTD SVG 1.1//EN" "http://www.w3.org/Graphics/SVG/1.1/DTD/svg11.dtd">
<svg style="width:308px;height:308px;" version="1.1" id="图形" xmlns="http://www.w3.org/2000/svg" xmlns:xlink="http://www.w3.org/1999/xlink" x="0px" y="0px" width="1024px" height="1024px" viewBox="0 0 1024 1024" enable-background="new 0 0 1024 1024" xml:space="preserve">
  <path class="svgpath" data-index="path_0" fill="#eb4f38" d="M671.088 32c9.703 1.58 19.507 2.7 29.102 4.808 33.708 7.423 63.892 22.347 90.526 44.22 17.477 14.348 24.612 33.054 19.554 55.223-4.544 19.928-17.289 33.35-36.952 39.084-18.59 5.423-35.405 1.307-50.671-10.932-19.344-15.508-40.82-26.238-66.561-23.943-21.811 1.945-42.672 24.892-40.796 45.38 0.84 9.166 4.117 18.123 6.442 27.133 4.117 15.928 8.349 31.817 12.535 47.722 0.724 2.747 1.393 4.933 5.229 5.143 58.631 3.206 111.45 22.269 158.526 57.643 46.283 34.782 84.177 76.512 109.574 128.958 18.636 38.485 29.086 79.127 31.849 121.791 3.673 56.686-2.988 112.15-25.056 164.525-51.286 121.682-141.517 200.163-268.357 236.252-48.266 13.733-97.732 19.095-147.803 16.255-104.065-5.921-194.218-45.24-270.171-116.329-74.933-70.124-121.651-156.339-137.905-257.557-22.114-137.664 11.804-261.105 101.505-368.151 49.278-58.802 110.765-101.179 182.468-128.537 24.713-9.431 51.76-0.653 65.323 20.932 13.851 22.036 10.606 50.391-8.59 67.945-5.423 4.957-12.271 8.871-19.118 11.664-109.318 44.632-181.542 123.231-210.224 237.855-27.826 111.224-3.221 213.018 67.828 302.711 44.54 56.227 102.073 93.989 171.715 112.531 45.014 11.983 90.488 12.769 136.342 5.68 47.302-7.314 91.476-22.868 131.097-49.994 54.523-37.327 93.358-87.111 112.78-150.418 16.777-54.679 17.352-109.87-3.377-164.128-16.683-43.668-46.158-77.267-83.134-104.976-19.756-14.799-40.968-26.37-65.152-32.035-1.097-0.257-2.217-0.382-4.218-0.708 3.299 12.66 6.373 24.674 9.548 36.657 7.664 28.915 15.508 57.791 23.047 86.745 16.379 62.926 0.537 118.056-42.797 165.038-40.081 43.45-91.11 62.35-149.647 56.686-65.168-6.31-111.683-41.676-142.038-98.937-15.897-29.989-22.752-62.303-24.021-96.121-2.016-53.845 10.552-103.56 41.396-147.99 33.125-47.73 79.018-78.349 133.229-97.381 4.264-1.494 8.583-2.863 13.586-4.521-2.91-11.073-5.961-21.88-8.583-32.798-3.61-15.010-8.256-29.934-10.069-45.186-5.377-45.084 8.466-84.309 39.614-117.138 25.507-26.884 56.453-43.932 93.514-49.029 4.085-0.561 8.154-1.183 12.224-1.774 5.563 0 11.12 0 16.683 0zM555.351 382.036c-32.105 10.201-59.829 25.771-80.605 51.698-27.817 34.712-33.366 74.583-24.488 116.966 4.607 21.998 15.367 40.836 34.253 53.978 23.616 16.433 55.776 15.726 80.473-1.37 25.242-17.477 36.478-45.668 29.102-74.583-8.077-31.67-16.667-63.215-25.025-94.822-4.506-17.017-8.995-34.035-13.71-51.869z" />

</svg>
